<svg xmlns="http://www.w3.org/2000/svg" viewBox="0 0 1200 675" role="img" aria-label="見積書の打ち直しを減らす">
<defs><linearGradient id="g" x1="0" y1="0" x2="1" y2="1"><stop offset="0" stop-color="#11294f"/><stop offset="1" stop-color="#0b1f3f"/></linearGradient>
<pattern id="p" width="48" height="48" patternUnits="userSpaceOnUse"><path d="M48 0H0V48" fill="none" stroke="#fff" stroke-opacity=".06"/></pattern></defs>
<rect width="1200" height="675" fill="url(#g)"/><rect width="1200" height="675" fill="url(#p)"/>
<circle cx="1040" cy="120" r="260" fill="#fff" fill-opacity=".04"/>
<rect x="72" y="72" width="156" height="40" rx="20" fill="#06c755"/><text x="150" y="99" font-family="Helvetica Neue,Arial,Hiragino Kaku Gothic ProN,sans-serif" font-size="20" font-weight="700" fill="#061329" text-anchor="middle">AI活用</text>
<g transform="translate(72 220) scale(9)" fill="none" stroke="#06c755" stroke-width="1.5" stroke-linecap="round" stroke-linejoin="round"><path d="M15 2H6a2 2 0 0 0-2 2v16a2 2 0 0 0 2 2h12a2 2 0 0 0 2-2V7Z"/><path d="M14 2v4a2 2 0 0 0 2 2h4"/><path d="M10 9H8"/><path d="M16 13H8"/><path d="M16 17H8"/></g>
<text x="72" y="540" font-family="Helvetica Neue,Arial,Hiragino Kaku Gothic ProN,sans-serif" font-size="44" font-weight="700" fill="#fff">見積書の打ち直しを減らす</text>
<text x="72" y="596" font-family="Helvetica Neue,Arial,sans-serif" font-size="18" letter-spacing="4" fill="#9fb0c9">DX職人 COLUMN</text>
</svg>